<?xml version="1.0" encoding="UTF-8" standalone="no"?>
<!DOCTYPE svg PUBLIC "-//W3C//DTD SVG 1.1//EN"
 "http://www.w3.org/Graphics/SVG/1.1/DTD/svg11.dtd">
<!-- Generated by graphviz version 2.43.0 (0)
 -->
<!-- Title: G Pages: 1 -->
<svg width="914pt" height="1108pt"
 viewBox="0.00 0.00 914.18 1107.95" xmlns="http://www.w3.org/2000/svg" xmlns:xlink="http://www.w3.org/1999/xlink">
<g id="graph0" class="graph" transform="scale(1 1) rotate(0) translate(4 1103.95)">
<title>G</title><style>.edge>path:hover{stroke-width:8}</style>
<polygon fill="white" stroke="transparent" points="-4,4 -4,-1103.95 910.18,-1103.95 910.18,4 -4,4"/>
<!-- otaf__assembly_modeling -->
<g id="node1" class="node">
<title>otaf__assembly_modeling</title><style>.edge>path:hover{stroke-width:8}</style>
<ellipse fill="#854747" stroke="black" cx="336.57" cy="-18" rx="63.65" ry="18"/>
<text text-anchor="middle" x="336.57" y="-15.5" font-family="Helvetica,sans-Serif" font-size="10.00" fill="#ffffff">_assembly_modeling</text>
</g>
<!-- otaf__assembly_modeling__interface_constraints -->
<g id="node2" class="node">
<title>otaf__assembly_modeling__interface_constraints</title><style>.edge>path:hover{stroke-width:8}</style>
<ellipse fill="#b34c4c" stroke="black" cx="391.57" cy="-93.21" rx="79.81" ry="21.43"/>
<text text-anchor="middle" x="391.57" y="-96.21" font-family="Helvetica,sans-Serif" font-size="10.00" fill="#ffffff">_assembly_modeling.</text>
<text text-anchor="middle" x="391.57" y="-85.21" font-family="Helvetica,sans-Serif" font-size="10.00" fill="#ffffff">_interface_constraints</text>
</g>
<!-- otaf__assembly_modeling__interface_constraints&#45;&gt;otaf__assembly_modeling -->
<g id="edge1" class="edge">
<title>otaf__assembly_modeling__interface_constraints&#45;&gt;otaf__assembly_modeling</title><style>.edge>path:hover{stroke-width:8}</style>
<path fill="none" stroke="black" d="M376.54,-72.21C370.02,-63.52 362.3,-53.25 355.4,-44.06"/>
<polygon fill="#b34c4c" stroke="black" points="358.15,-41.9 349.35,-36 352.55,-46.1 358.15,-41.9"/>
</g>
<!-- otaf__assembly_modeling__interface_constraints__interfaceLoopBuilder -->
<g id="node3" class="node">
<title>otaf__assembly_modeling__interface_constraints__interfaceLoopBuilder</title><style>.edge>path:hover{stroke-width:8}</style>
<ellipse fill="#964040" stroke="black" cx="429.57" cy="-273.4" rx="82.05" ry="28.98"/>
<text text-anchor="middle" x="429.57" y="-281.9" font-family="Helvetica,sans-Serif" font-size="10.00" fill="#ffffff">_assembly_modeling.</text>
<text text-anchor="middle" x="429.57" y="-270.9" font-family="Helvetica,sans-Serif" font-size="10.00" fill="#ffffff">_interface_constraints.</text>
<text text-anchor="middle" x="429.57" y="-259.9" font-family="Helvetica,sans-Serif" font-size="10.00" fill="#ffffff">_interfaceLoopBuilder</text>
</g>
<!-- otaf__assembly_modeling__interface_constraints_interfaceLoopHandling -->
<g id="node5" class="node">
<title>otaf__assembly_modeling__interface_constraints_interfaceLoopHandling</title><style>.edge>path:hover{stroke-width:8}</style>
<ellipse fill="#964040" stroke="black" cx="391.57" cy="-179.42" rx="82.05" ry="28.98"/>
<text text-anchor="middle" x="391.57" y="-187.92" font-family="Helvetica,sans-Serif" font-size="10.00" fill="#ffffff">_assembly_modeling.</text>
<text text-anchor="middle" x="391.57" y="-176.92" font-family="Helvetica,sans-Serif" font-size="10.00" fill="#ffffff">_interface_constraints.</text>
<text text-anchor="middle" x="391.57" y="-165.92" font-family="Helvetica,sans-Serif" font-size="10.00" fill="#ffffff">interfaceLoopHandling</text>
</g>
<!-- otaf__assembly_modeling__interface_constraints__interfaceLoopBuilder&#45;&gt;otaf__assembly_modeling__interface_constraints_interfaceLoopHandling -->
<g id="edge2" class="edge">
<title>otaf__assembly_modeling__interface_constraints__interfaceLoopBuilder&#45;&gt;otaf__assembly_modeling__interface_constraints_interfaceLoopHandling</title><style>.edge>path:hover{stroke-width:8}</style>
<path fill="none" stroke="black" d="M417.96,-244.3C414.5,-235.92 410.65,-226.6 406.99,-217.73"/>
<polygon fill="#964040" stroke="black" points="410.16,-216.25 403.11,-208.34 403.69,-218.92 410.16,-216.25"/>
</g>
<!-- otaf__assembly_modeling__interface_constraints__surfaceInteractionManager -->
<g id="node4" class="node">
<title>otaf__assembly_modeling__interface_constraints__surfaceInteractionManager</title><style>.edge>path:hover{stroke-width:8}</style>
<ellipse fill="#964040" stroke="black" cx="664.57" cy="-273.4" rx="96.75" ry="28.98"/>
<text text-anchor="middle" x="664.57" y="-281.9" font-family="Helvetica,sans-Serif" font-size="10.00" fill="#ffffff">_assembly_modeling.</text>
<text text-anchor="middle" x="664.57" y="-270.9" font-family="Helvetica,sans-Serif" font-size="10.00" fill="#ffffff">_interface_constraints.</text>
<text text-anchor="middle" x="664.57" y="-259.9" font-family="Helvetica,sans-Serif" font-size="10.00" fill="#ffffff">_surfaceInteractionManager</text>
</g>
<!-- otaf__assembly_modeling__interface_constraints__surfaceInteractionManager&#45;&gt;otaf__assembly_modeling__interface_constraints_interfaceLoopHandling -->
<g id="edge3" class="edge">
<title>otaf__assembly_modeling__interface_constraints__surfaceInteractionManager&#45;&gt;otaf__assembly_modeling__interface_constraints_interfaceLoopHandling</title><style>.edge>path:hover{stroke-width:8}</style>
<path fill="none" stroke="black" d="M601.6,-251.18C559,-236.83 502.78,-217.89 459.22,-203.21"/>
<polygon fill="#964040" stroke="black" points="460.16,-199.84 449.57,-199.96 457.93,-206.47 460.16,-199.84"/>
</g>
<!-- otaf__assembly_modeling__interface_constraints_interfaceLoopHandling&#45;&gt;otaf__assembly_modeling__interface_constraints -->
<g id="edge4" class="edge">
<title>otaf__assembly_modeling__interface_constraints_interfaceLoopHandling&#45;&gt;otaf__assembly_modeling__interface_constraints</title><style>.edge>path:hover{stroke-width:8}</style>
<path fill="none" stroke="black" d="M391.57,-150.38C391.57,-142.17 391.57,-133.16 391.57,-124.8"/>
<polygon fill="#964040" stroke="black" points="395.07,-124.67 391.57,-114.67 388.07,-124.67 395.07,-124.67"/>
</g>
<!-- otaf__assembly_modeling_assemblyDataProcessor -->
<g id="node6" class="node">
<title>otaf__assembly_modeling_assemblyDataProcessor</title><style>.edge>path:hover{stroke-width:8}</style>
<ellipse fill="#ca1616" stroke="black" cx="599.57" cy="-438.03" rx="87.86" ry="21.43"/>
<text text-anchor="middle" x="599.57" y="-441.03" font-family="Helvetica,sans-Serif" font-size="10.00" fill="#ffffff">_assembly_modeling.</text>
<text text-anchor="middle" x="599.57" y="-430.03" font-family="Helvetica,sans-Serif" font-size="10.00" fill="#ffffff">assemblyDataProcessor</text>
</g>
<!-- otaf__assembly_modeling_assemblyDataProcessor&#45;&gt;otaf__assembly_modeling -->
<g id="edge5" class="edge">
<title>otaf__assembly_modeling_assemblyDataProcessor&#45;&gt;otaf__assembly_modeling</title><style>.edge>path:hover{stroke-width:8}</style>
<path fill="none" stroke="black" d="M647.52,-420.11C703.8,-396.82 789.57,-349.08 789.57,-274.4 789.57,-274.4 789.57,-274.4 789.57,-178.42 789.57,-97.34 528.13,-47.45 402.47,-28.15"/>
<polygon fill="#ca1616" stroke="black" points="402.98,-24.68 392.57,-26.65 401.94,-31.61 402.98,-24.68"/>
</g>
<!-- otaf__assembly_modeling_assemblyDataProcessor&#45;&gt;otaf__assembly_modeling__interface_constraints__interfaceLoopBuilder -->
<g id="edge6" class="edge">
<title>otaf__assembly_modeling_assemblyDataProcessor&#45;&gt;otaf__assembly_modeling__interface_constraints__interfaceLoopBuilder</title><style>.edge>path:hover{stroke-width:8}</style>
<path fill="none" stroke="black" d="M607.92,-416.78C613.19,-401.3 618.19,-379.47 613.57,-360.61"/>
<path fill="none" stroke="black" d="M613.57,-358.61C607.62,-334.29 551.28,-310.96 502.49,-295.04"/>
<polygon fill="#ca1616" stroke="black" points="503.45,-291.67 492.86,-291.96 501.31,-298.34 503.45,-291.67"/>
</g>
<!-- otaf__assembly_modeling_assemblyDataProcessor&#45;&gt;otaf__assembly_modeling__interface_constraints__surfaceInteractionManager -->
<g id="edge7" class="edge">
<title>otaf__assembly_modeling_assemblyDataProcessor&#45;&gt;otaf__assembly_modeling__interface_constraints__surfaceInteractionManager</title><style>.edge>path:hover{stroke-width:8}</style>
<path fill="none" stroke="black" d="M613.57,-358.61C609.29,-341.12 617.16,-323.77 627.92,-309.4"/>
<polygon fill="#ca1616" stroke="black" points="630.91,-311.27 634.51,-301.31 625.48,-306.85 630.91,-311.27"/>
</g>
<!-- otaf__assembly_modeling_assemblyDataProcessor&#45;&gt;otaf__assembly_modeling__interface_constraints_interfaceLoopHandling -->
<g id="edge8" class="edge">
<title>otaf__assembly_modeling_assemblyDataProcessor&#45;&gt;otaf__assembly_modeling__interface_constraints_interfaceLoopHandling</title><style>.edge>path:hover{stroke-width:8}</style>
<path fill="none" stroke="black" d="M578.15,-417.22C553.14,-395.07 509.67,-359.54 466.57,-338.39 413.52,-312.36 374.26,-349.5 338.57,-302.39 323.01,-281.85 329.84,-268.65 338.57,-244.41 342.43,-233.71 348.94,-223.53 356.1,-214.56"/>
<polygon fill="#ca1616" stroke="black" points="358.99,-216.57 362.8,-206.69 353.66,-212.03 358.99,-216.57"/>
</g>
<!-- otaf__assembly_modeling_compatibilityLoopHandling -->
<g id="node8" class="node">
<title>otaf__assembly_modeling_compatibilityLoopHandling</title><style>.edge>path:hover{stroke-width:8}</style>
<ellipse fill="#993333" stroke="black" cx="364.57" cy="-359.61" rx="92.76" ry="21.43"/>
<text text-anchor="middle" x="364.57" y="-362.61" font-family="Helvetica,sans-Serif" font-size="10.00" fill="#ffffff">_assembly_modeling.</text>
<text text-anchor="middle" x="364.57" y="-351.61" font-family="Helvetica,sans-Serif" font-size="10.00" fill="#ffffff">compatibilityLoopHandling</text>
</g>
<!-- otaf__assembly_modeling_assemblyDataProcessor&#45;&gt;otaf__assembly_modeling_compatibilityLoopHandling -->
<g id="edge9" class="edge">
<title>otaf__assembly_modeling_assemblyDataProcessor&#45;&gt;otaf__assembly_modeling_compatibilityLoopHandling</title><style>.edge>path:hover{stroke-width:8}</style>
<path fill="none" stroke="black" d="M549.16,-420.64C512.98,-408.87 464.04,-392.95 425.64,-380.47"/>
<polygon fill="#ca1616" stroke="black" points="426.71,-377.13 416.12,-377.37 424.55,-383.79 426.71,-377.13"/>
</g>
<!-- otaf__assembly_modeling_assemblyModelingBaseObjects -->
<g id="node7" class="node">
<title>otaf__assembly_modeling_assemblyModelingBaseObjects</title><style>.edge>path:hover{stroke-width:8}</style>
<ellipse fill="#bc2f2f" stroke="black" cx="308.57" cy="-516.46" rx="108.79" ry="21.43"/>
<text text-anchor="middle" x="308.57" y="-519.46" font-family="Helvetica,sans-Serif" font-size="10.00" fill="#ffffff">_assembly_modeling.</text>
<text text-anchor="middle" x="308.57" y="-508.46" font-family="Helvetica,sans-Serif" font-size="10.00" fill="#ffffff">assemblyModelingBaseObjects</text>
</g>
<!-- otaf__assembly_modeling_assemblyModelingBaseObjects&#45;&gt;otaf__assembly_modeling -->
<g id="edge10" class="edge">
<title>otaf__assembly_modeling_assemblyModelingBaseObjects&#45;&gt;otaf__assembly_modeling</title><style>.edge>path:hover{stroke-width:8}</style>
<path fill="none" stroke="black" d="M264.43,-496.82C248.94,-487.87 233.25,-475.5 224.57,-459.24 185.67,-386.4 219.12,-353.28 243.57,-274.4"/>
<path fill="none" stroke="black" d="M243.57,-272.4C255.6,-229.84 277.17,-224.43 281.57,-180.42"/>
<path fill="none" stroke="black" d="M281.57,-178.42C286.37,-130.45 284.57,-116.72 302.57,-72 306.45,-62.37 312.13,-52.58 317.74,-44.09"/>
<polygon fill="#bc2f2f" stroke="black" points="320.69,-45.98 323.49,-35.76 314.93,-42.01 320.69,-45.98"/>
</g>
<!-- otaf__assembly_modeling_assemblyModelingBaseObjects&#45;&gt;otaf__assembly_modeling_compatibilityLoopHandling -->
<g id="edge11" class="edge">
<title>otaf__assembly_modeling_assemblyModelingBaseObjects&#45;&gt;otaf__assembly_modeling_compatibilityLoopHandling</title><style>.edge>path:hover{stroke-width:8}</style>
<path fill="none" stroke="black" d="M386.82,-501.55C424.01,-490.56 457.94,-471.48 445.57,-439.03"/>
<path fill="none" stroke="black" d="M445.57,-437.03C437.64,-416.23 420.46,-398.68 403.95,-385.66"/>
<polygon fill="#bc2f2f" stroke="black" points="406.04,-382.85 395.94,-379.64 401.83,-388.45 406.04,-382.85"/>
</g>
<!-- otaf__assembly_modeling_firstOrderMatrixExpansion -->
<g id="node9" class="node">
<title>otaf__assembly_modeling_firstOrderMatrixExpansion</title><style>.edge>path:hover{stroke-width:8}</style>
<ellipse fill="#cc3333" stroke="black" cx="325.57" cy="-438.03" rx="91.85" ry="21.43"/>
<text text-anchor="middle" x="325.57" y="-441.03" font-family="Helvetica,sans-Serif" font-size="10.00" fill="#ffffff">_assembly_modeling.</text>
<text text-anchor="middle" x="325.57" y="-430.03" font-family="Helvetica,sans-Serif" font-size="10.00" fill="#ffffff">firstOrderMatrixExpansion</text>
</g>
<!-- otaf__assembly_modeling_assemblyModelingBaseObjects&#45;&gt;otaf__assembly_modeling_firstOrderMatrixExpansion -->
<g id="edge12" class="edge">
<title>otaf__assembly_modeling_assemblyModelingBaseObjects&#45;&gt;otaf__assembly_modeling_firstOrderMatrixExpansion</title><style>.edge>path:hover{stroke-width:8}</style>
<path fill="none" stroke="black" d="M313.13,-494.98C314.9,-487.03 316.95,-477.77 318.88,-469.1"/>
<polygon fill="#bc2f2f" stroke="black" points="322.31,-469.83 321.06,-459.3 315.47,-468.31 322.31,-469.83"/>
</g>
<!-- otaf__assembly_modeling_compatibilityLoopHandling&#45;&gt;otaf__assembly_modeling -->
<g id="edge13" class="edge">
<title>otaf__assembly_modeling_compatibilityLoopHandling&#45;&gt;otaf__assembly_modeling</title><style>.edge>path:hover{stroke-width:8}</style>
<path fill="none" stroke="black" d="M330.52,-339.67C309.12,-325.12 284.95,-302.73 281.57,-274.4"/>
<path fill="none" stroke="black" d="M281.57,-272.4C276.74,-231.81 277.5,-221.1 281.57,-180.42"/>
</g>
<!-- otaf__assembly_modeling_compatibilityLoopHandling&#45;&gt;otaf__assembly_modeling__interface_constraints_interfaceLoopHandling -->
<g id="edge14" class="edge">
<title>otaf__assembly_modeling_compatibilityLoopHandling&#45;&gt;otaf__assembly_modeling__interface_constraints_interfaceLoopHandling</title><style>.edge>path:hover{stroke-width:8}</style>
<path fill="none" stroke="black" d="M281.57,-272.4C278.07,-242.97 301.61,-221.02 327.8,-205.96"/>
<polygon fill="#993333" stroke="black" points="329.62,-208.96 336.75,-201.12 326.29,-202.8 329.62,-208.96"/>
</g>
<!-- otaf__assembly_modeling_firstOrderMatrixExpansion&#45;&gt;otaf__assembly_modeling -->
<g id="edge15" class="edge">
<title>otaf__assembly_modeling_firstOrderMatrixExpansion&#45;&gt;otaf__assembly_modeling</title><style>.edge>path:hover{stroke-width:8}</style>
<path fill="none" stroke="black" d="M286.35,-418.69C265.18,-405.81 243.37,-386.29 243.57,-360.61"/>
<path fill="none" stroke="black" d="M243.57,-358.61C243.86,-321.18 232.49,-310.15 243.57,-274.4"/>
</g>
<!-- otaf__assembly_modeling_firstOrderMatrixExpansion&#45;&gt;otaf__assembly_modeling__interface_constraints__interfaceLoopBuilder -->
<g id="edge16" class="edge">
<title>otaf__assembly_modeling_firstOrderMatrixExpansion&#45;&gt;otaf__assembly_modeling__interface_constraints__interfaceLoopBuilder</title><style>.edge>path:hover{stroke-width:8}</style>
<path fill="none" stroke="black" d="M243.57,-358.61C243.77,-333.05 302.77,-309.56 354.25,-293.93"/>
<polygon fill="#cc3333" stroke="black" points="355.51,-297.21 364.1,-291 353.52,-290.5 355.51,-297.21"/>
</g>
<!-- otaf__assembly_modeling_firstOrderMatrixExpansion&#45;&gt;otaf__assembly_modeling_compatibilityLoopHandling -->
<g id="edge17" class="edge">
<title>otaf__assembly_modeling_firstOrderMatrixExpansion&#45;&gt;otaf__assembly_modeling_compatibilityLoopHandling</title><style>.edge>path:hover{stroke-width:8}</style>
<path fill="none" stroke="black" d="M336.02,-416.55C340.21,-408.35 345.11,-398.74 349.66,-389.83"/>
<polygon fill="#cc3333" stroke="black" points="352.8,-391.38 354.23,-380.88 346.56,-388.19 352.8,-391.38"/>
</g>
<!-- otaf__assembly_modeling_systemOfConstraintsAssemblyModel -->
<g id="node10" class="node">
<title>otaf__assembly_modeling_systemOfConstraintsAssemblyModel</title><style>.edge>path:hover{stroke-width:8}</style>
<ellipse fill="#b34c4c" stroke="black" cx="126.57" cy="-93.21" rx="126.64" ry="21.43"/>
<text text-anchor="middle" x="126.57" y="-96.21" font-family="Helvetica,sans-Serif" font-size="10.00" fill="#ffffff">_assembly_modeling.</text>
<text text-anchor="middle" x="126.57" y="-85.21" font-family="Helvetica,sans-Serif" font-size="10.00" fill="#ffffff">systemOfConstraintsAssemblyModel</text>
</g>
<!-- otaf__assembly_modeling_systemOfConstraintsAssemblyModel&#45;&gt;otaf__assembly_modeling -->
<g id="edge18" class="edge">
<title>otaf__assembly_modeling_systemOfConstraintsAssemblyModel&#45;&gt;otaf__assembly_modeling</title><style>.edge>path:hover{stroke-width:8}</style>
<path fill="none" stroke="black" d="M179.29,-73.83C212.77,-62.16 255.75,-47.18 288.33,-35.82"/>
<polygon fill="#b34c4c" stroke="black" points="289.79,-39.02 298.08,-32.42 287.48,-32.41 289.79,-39.02"/>
</g>
<!-- otaf_common -->
<g id="node11" class="node">
<title>otaf_common</title><style>.edge>path:hover{stroke-width:8}</style>
<ellipse fill="#f90606" stroke="black" cx="532.57" cy="-628.67" rx="31.58" ry="18"/>
<text text-anchor="middle" x="532.57" y="-626.17" font-family="Helvetica,sans-Serif" font-size="10.00" fill="#ffffff">common</text>
</g>
<!-- otaf_common&#45;&gt;otaf__assembly_modeling__interface_constraints__interfaceLoopBuilder -->
<g id="edge19" class="edge">
<title>otaf_common&#45;&gt;otaf__assembly_modeling__interface_constraints__interfaceLoopBuilder</title><style>.edge>path:hover{stroke-width:8}</style>
<path fill="none" stroke="black" d="M483.57,-515.46C488.78,-436.57 490.69,-413.68 466.57,-338.39 463.55,-328.96 458.99,-319.4 454.09,-310.64"/>
<polygon fill="#f90606" stroke="black" points="457,-308.69 448.91,-301.85 450.97,-312.24 457,-308.69"/>
</g>
<!-- otaf_common&#45;&gt;otaf__assembly_modeling__interface_constraints__surfaceInteractionManager -->
<g id="edge20" class="edge">
<title>otaf_common&#45;&gt;otaf__assembly_modeling__interface_constraints__surfaceInteractionManager</title><style>.edge>path:hover{stroke-width:8}</style>
<path fill="none" stroke="black" d="M664.57,-358.61C655.56,-345.49 654.21,-328.3 655.64,-312.87"/>
<polygon fill="#f90606" stroke="black" points="659.17,-312.92 657.01,-302.54 652.23,-312 659.17,-312.92"/>
</g>
<!-- otaf_common&#45;&gt;otaf__assembly_modeling__interface_constraints_interfaceLoopHandling -->
<g id="edge21" class="edge">
<title>otaf_common&#45;&gt;otaf__assembly_modeling__interface_constraints_interfaceLoopHandling</title><style>.edge>path:hover{stroke-width:8}</style>
<path fill="none" stroke="black" d="M555.95,-616.4C584.26,-601.73 631.82,-573.66 661.57,-537.67 697.2,-494.57 710.88,-470.88 696.57,-416.82 692.89,-402.92 672.71,-372.45 664.57,-360.61"/>
<path fill="none" stroke="black" d="M664.57,-358.61C638.16,-312.28 598.1,-338.18 558.57,-302.39 535.73,-281.71 543.62,-264.85 520.57,-244.41 502.16,-228.08 478.84,-214.85 457.1,-204.74"/>
<polygon fill="#f90606" stroke="black" points="458.45,-201.51 447.9,-200.6 455.58,-207.9 458.45,-201.51"/>
</g>
<!-- otaf_common&#45;&gt;otaf__assembly_modeling_assemblyDataProcessor -->
<g id="edge22" class="edge">
<title>otaf_common&#45;&gt;otaf__assembly_modeling_assemblyDataProcessor</title><style>.edge>path:hover{stroke-width:8}</style>
<path fill="none" stroke="black" d="M483.57,-515.46C487.9,-488.65 510.87,-470.63 535.24,-458.87"/>
<polygon fill="#f90606" stroke="black" points="536.92,-461.95 544.61,-454.66 534.05,-455.56 536.92,-461.95"/>
</g>
<!-- otaf_common&#45;&gt;otaf__assembly_modeling_assemblyModelingBaseObjects -->
<g id="edge23" class="edge">
<title>otaf_common&#45;&gt;otaf__assembly_modeling_assemblyModelingBaseObjects</title><style>.edge>path:hover{stroke-width:8}</style>
<path fill="none" stroke="black" d="M327.57,-573.67C317.52,-569.19 312.54,-558.66 310.17,-547.91"/>
<polygon fill="#f90606" stroke="black" points="313.58,-547.07 308.6,-537.72 306.66,-548.14 313.58,-547.07"/>
</g>
<!-- otaf_common&#45;&gt;otaf__assembly_modeling_compatibilityLoopHandling -->
<g id="edge24" class="edge">
<title>otaf_common&#45;&gt;otaf__assembly_modeling_compatibilityLoopHandling</title><style>.edge>path:hover{stroke-width:8}</style>
<path fill="none" stroke="black" d="M518.92,-612.06C502.49,-591.42 477.77,-553.43 483.57,-517.46"/>
<path fill="none" stroke="black" d="M483.57,-515.46C486.07,-477.61 459.08,-474.48 445.57,-439.03"/>
</g>
<!-- otaf_common&#45;&gt;otaf__assembly_modeling_systemOfConstraintsAssemblyModel -->
<g id="edge25" class="edge">
<title>otaf_common&#45;&gt;otaf__assembly_modeling_systemOfConstraintsAssemblyModel</title><style>.edge>path:hover{stroke-width:8}</style>
<path fill="none" stroke="black" d="M503.56,-620.74C450.94,-608.07 343.69,-581.85 327.57,-574.67"/>
<path fill="none" stroke="black" d="M327.57,-573.67C270.06,-548.07 232.16,-584.94 190.57,-537.67 138.16,-478.09 167.57,-439.96 167.57,-360.61 167.57,-360.61 167.57,-360.61 167.57,-272.4 167.57,-219.1 149.93,-159.05 137.79,-124.05"/>
<polygon fill="#f90606" stroke="black" points="141.03,-122.69 134.38,-114.44 134.43,-125.04 141.03,-122.69"/>
</g>
<!-- otaf_common__common -->
<g id="node12" class="node">
<title>otaf_common__common</title><style>.edge>path:hover{stroke-width:8}</style>
<ellipse fill="#ac4949" stroke="black" cx="532.57" cy="-703.88" rx="58.73" ry="18"/>
<text text-anchor="middle" x="532.57" y="-701.38" font-family="Helvetica,sans-Serif" font-size="10.00" fill="#ffffff">common._common</text>
</g>
<!-- otaf_common__common&#45;&gt;otaf_common -->
<g id="edge26" class="edge">
<title>otaf_common__common&#45;&gt;otaf_common</title><style>.edge>path:hover{stroke-width:8}</style>
<path fill="none" stroke="black" d="M532.57,-685.53C532.57,-677.05 532.57,-666.65 532.57,-657.12"/>
<polygon fill="#ac4949" stroke="black" points="536.07,-656.9 532.57,-646.9 529.07,-656.9 536.07,-656.9"/>
</g>
<!-- otaf_constants -->
<g id="node13" class="node">
<title>otaf_constants</title><style>.edge>path:hover{stroke-width:8}</style>
<ellipse fill="#f90606" stroke="black" cx="681.57" cy="-1003.52" rx="34.96" ry="18"/>
<text text-anchor="middle" x="681.57" y="-1001.02" font-family="Helvetica,sans-Serif" font-size="10.00" fill="#ffffff">constants</text>
</g>
<!-- otaf_constants&#45;&gt;otaf__assembly_modeling__interface_constraints__interfaceLoopBuilder -->
<g id="edge27" class="edge">
<title>otaf_constants&#45;&gt;otaf__assembly_modeling__interface_constraints__interfaceLoopBuilder</title><style>.edge>path:hover{stroke-width:8}</style>
<path fill="none" stroke="black" d="M681.57,-948.52C705.19,-874.99 801.71,-971.51 851.57,-912.52 948.59,-797.75 890.73,-722.84 865.57,-574.67"/>
<path fill="none" stroke="black" d="M865.57,-573.67C864.97,-571.41 804.88,-418.76 803.57,-416.82 775.43,-374.97 766.08,-362.1 721.57,-338.39 720.37,-337.75 594.49,-310.28 508.42,-291.55"/>
<polygon fill="#f90606" stroke="black" points="508.91,-288.07 498.4,-289.37 507.42,-294.91 508.91,-288.07"/>
</g>
<!-- otaf_constants&#45;&gt;otaf__assembly_modeling__interface_constraints__surfaceInteractionManager -->
<g id="edge28" class="edge">
<title>otaf_constants&#45;&gt;otaf__assembly_modeling__interface_constraints__surfaceInteractionManager</title><style>.edge>path:hover{stroke-width:8}</style>
<path fill="none" stroke="black" d="M865.57,-573.67C861.39,-549.04 861.62,-542.13 865.57,-517.46"/>
</g>
<!-- otaf_constants&#45;&gt;otaf__assembly_modeling_assemblyDataProcessor -->
<g id="edge29" class="edge">
<title>otaf_constants&#45;&gt;otaf__assembly_modeling_assemblyDataProcessor</title><style>.edge>path:hover{stroke-width:8}</style>
<path fill="none" stroke="black" d="M608.57,-815.1C561.9,-690.11 727.13,-624.56 647.57,-517.46"/>
<path fill="none" stroke="black" d="M647.57,-515.46C635.41,-500.76 623.96,-482.76 615.3,-467.92"/>
<polygon fill="#f90606" stroke="black" points="618.29,-466.09 610.28,-459.15 612.21,-469.57 618.29,-466.09"/>
</g>
<!-- otaf_constants&#45;&gt;otaf__assembly_modeling_assemblyModelingBaseObjects -->
<g id="edge30" class="edge">
<title>otaf_constants&#45;&gt;otaf__assembly_modeling_assemblyModelingBaseObjects</title><style>.edge>path:hover{stroke-width:8}</style>
<path fill="none" stroke="black" d="M679.15,-985.46C678.24,-974.9 678.13,-961.17 681.57,-949.52"/>
<path fill="none" stroke="black" d="M681.57,-948.52C690.16,-919.43 640.34,-937.81 623.57,-912.52 599.84,-876.75 620.35,-858.38 608.57,-817.1"/>
<path fill="none" stroke="black" d="M608.57,-815.1C594.16,-776.52 562.03,-790.87 532.57,-762.1"/>
<path fill="none" stroke="black" d="M532.57,-761.1C508.11,-737.21 485,-752.52 464.57,-725.1 438.74,-690.42 465.56,-668.02 445.57,-629.67"/>
<path fill="none" stroke="black" d="M445.57,-627.67C412.01,-574.09 351.23,-625.45 313.57,-574.67 307.96,-567.11 305.81,-557.34 305.33,-548.02"/>
<polygon fill="#f90606" stroke="black" points="308.83,-547.85 305.4,-537.83 301.83,-547.8 308.83,-547.85"/>
</g>
<!-- otaf_constants&#45;&gt;otaf__assembly_modeling_compatibilityLoopHandling -->
<g id="edge31" class="edge">
<title>otaf_constants&#45;&gt;otaf__assembly_modeling_compatibilityLoopHandling</title><style>.edge>path:hover{stroke-width:8}</style>
<path fill="none" stroke="black" d="M445.57,-627.67C403.96,-554.89 472.83,-518.32 445.57,-439.03"/>
</g>
<!-- otaf_constants&#45;&gt;otaf_common__common -->
<g id="edge32" class="edge">
<title>otaf_constants&#45;&gt;otaf_common__common</title><style>.edge>path:hover{stroke-width:8}</style>
<path fill="none" stroke="black" d="M532.57,-761.1C524.98,-753.68 523.84,-742.42 525.04,-731.92"/>
<polygon fill="#f90606" stroke="black" points="528.52,-732.31 526.86,-721.85 521.63,-731.06 528.52,-732.31"/>
</g>
<!-- otaf_exceptions__exceptions -->
<g id="node16" class="node">
<title>otaf_exceptions__exceptions</title><style>.edge>path:hover{stroke-width:8}</style>
<ellipse fill="#b34c4c" stroke="black" cx="681.57" cy="-891.31" rx="48.58" ry="21.43"/>
<text text-anchor="middle" x="681.57" y="-894.31" font-family="Helvetica,sans-Serif" font-size="10.00" fill="#ffffff">exceptions.</text>
<text text-anchor="middle" x="681.57" y="-883.31" font-family="Helvetica,sans-Serif" font-size="10.00" fill="#ffffff">_exceptions</text>
</g>
<!-- otaf_constants&#45;&gt;otaf_exceptions__exceptions -->
<g id="edge33" class="edge">
<title>otaf_constants&#45;&gt;otaf_exceptions__exceptions</title><style>.edge>path:hover{stroke-width:8}</style>
<path fill="none" stroke="black" d="M681.57,-948.52C683.96,-940.43 684.74,-931.39 684.72,-922.96"/>
<polygon fill="#f90606" stroke="black" points="688.2,-922.6 684.32,-912.74 681.21,-922.87 688.2,-922.6"/>
</g>
<!-- otaf_constants__constants -->
<g id="node14" class="node">
<title>otaf_constants__constants</title><style>.edge>path:hover{stroke-width:8}</style>
<ellipse fill="#b65353" stroke="black" cx="681.57" cy="-1078.74" rx="45.92" ry="21.43"/>
<text text-anchor="middle" x="681.57" y="-1081.74" font-family="Helvetica,sans-Serif" font-size="10.00" fill="#ffffff">constants.</text>
<text text-anchor="middle" x="681.57" y="-1070.74" font-family="Helvetica,sans-Serif" font-size="10.00" fill="#ffffff">_constants</text>
</g>
<!-- otaf_constants__constants&#45;&gt;otaf_constants -->
<g id="edge34" class="edge">
<title>otaf_constants__constants&#45;&gt;otaf_constants</title><style>.edge>path:hover{stroke-width:8}</style>
<path fill="none" stroke="black" d="M681.57,-1057.34C681.57,-1049.49 681.57,-1040.39 681.57,-1031.98"/>
<polygon fill="#b65353" stroke="black" points="685.07,-1031.83 681.57,-1021.83 678.07,-1031.83 685.07,-1031.83"/>
</g>
<!-- otaf_exceptions -->
<g id="node15" class="node">
<title>otaf_exceptions</title><style>.edge>path:hover{stroke-width:8}</style>
<ellipse fill="#d02424" stroke="black" cx="738.57" cy="-816.1" rx="37.85" ry="18"/>
<text text-anchor="middle" x="738.57" y="-813.6" font-family="Helvetica,sans-Serif" font-size="10.00" fill="#ffffff">exceptions</text>
</g>
<!-- otaf_exceptions&#45;&gt;otaf__assembly_modeling__interface_constraints__surfaceInteractionManager -->
<g id="edge35" class="edge">
<title>otaf_exceptions&#45;&gt;otaf__assembly_modeling__interface_constraints__surfaceInteractionManager</title><style>.edge>path:hover{stroke-width:8}</style>
<path fill="none" stroke="black" d="M827.57,-573.67C818.5,-544.91 860.8,-547.23 865.57,-517.46"/>
<path fill="none" stroke="black" d="M865.57,-515.46C870.95,-481.92 860.3,-472.59 865.57,-439.03"/>
</g>
<!-- otaf_exceptions&#45;&gt;otaf__assembly_modeling_assemblyDataProcessor -->
<g id="edge36" class="edge">
<title>otaf_exceptions&#45;&gt;otaf__assembly_modeling_assemblyDataProcessor</title><style>.edge>path:hover{stroke-width:8}</style>
<path fill="none" stroke="black" d="M827.57,-761.1C846.11,-680.34 840.69,-656.48 827.57,-574.67"/>
<path fill="none" stroke="black" d="M827.57,-573.67C826.35,-568.49 707.46,-500.28 641.87,-462.99"/>
<polygon fill="#d02424" stroke="black" points="643.41,-459.84 632.99,-457.94 639.95,-465.93 643.41,-459.84"/>
</g>
<!-- otaf_exceptions&#45;&gt;otaf_common__common -->
<g id="edge37" class="edge">
<title>otaf_exceptions&#45;&gt;otaf_common__common</title><style>.edge>path:hover{stroke-width:8}</style>
<path fill="none" stroke="black" d="M714.13,-802.02C678.36,-782.88 611.47,-747.1 569.63,-724.71"/>
<polygon fill="#d02424" stroke="black" points="571.06,-721.51 560.59,-719.88 567.76,-727.68 571.06,-721.51"/>
</g>
<!-- otaf_geometry__geometry -->
<g id="node19" class="node">
<title>otaf_geometry__geometry</title><style>.edge>path:hover{stroke-width:8}</style>
<ellipse fill="#b34c4c" stroke="black" cx="753.57" cy="-703.88" rx="43.68" ry="21.43"/>
<text text-anchor="middle" x="753.57" y="-706.88" font-family="Helvetica,sans-Serif" font-size="10.00" fill="#ffffff">geometry.</text>
<text text-anchor="middle" x="753.57" y="-695.88" font-family="Helvetica,sans-Serif" font-size="10.00" fill="#ffffff">_geometry</text>
</g>
<!-- otaf_exceptions&#45;&gt;otaf_geometry__geometry -->
<g id="edge38" class="edge">
<title>otaf_exceptions&#45;&gt;otaf_geometry__geometry</title><style>.edge>path:hover{stroke-width:8}</style>
<path fill="none" stroke="black" d="M772.4,-807.73C795.1,-800.57 821.86,-786.99 827.57,-762.1"/>
<path fill="none" stroke="black" d="M827.57,-761.1C831.78,-742.75 816.79,-729.45 799.22,-720.41"/>
<polygon fill="#d02424" stroke="black" points="800.42,-717.11 789.88,-716.07 797.47,-723.46 800.42,-717.11"/>
</g>
<!-- otaf_exceptions__exceptions&#45;&gt;otaf_exceptions -->
<g id="edge39" class="edge">
<title>otaf_exceptions__exceptions&#45;&gt;otaf_exceptions</title><style>.edge>path:hover{stroke-width:8}</style>
<path fill="none" stroke="black" d="M696.55,-871.07C703.59,-862.03 712.06,-851.15 719.55,-841.53"/>
<polygon fill="#b34c4c" stroke="black" points="722.44,-843.52 725.82,-833.48 716.92,-839.22 722.44,-843.52"/>
</g>
<!-- otaf_exceptions__timeout -->
<g id="node17" class="node">
<title>otaf_exceptions__timeout</title><style>.edge>path:hover{stroke-width:8}</style>
<ellipse fill="#b65353" stroke="black" cx="795.57" cy="-891.31" rx="47.25" ry="21.43"/>
<text text-anchor="middle" x="795.57" y="-894.31" font-family="Helvetica,sans-Serif" font-size="10.00" fill="#ffffff">exceptions.</text>
<text text-anchor="middle" x="795.57" y="-883.31" font-family="Helvetica,sans-Serif" font-size="10.00" fill="#ffffff">_timeout</text>
</g>
<!-- otaf_exceptions__timeout&#45;&gt;otaf_exceptions -->
<g id="edge40" class="edge">
<title>otaf_exceptions__timeout&#45;&gt;otaf_exceptions</title><style>.edge>path:hover{stroke-width:8}</style>
<path fill="none" stroke="black" d="M780.6,-871.07C773.55,-862.03 765.08,-851.15 757.59,-841.53"/>
<polygon fill="#b65353" stroke="black" points="760.23,-839.22 751.32,-833.48 754.71,-843.52 760.23,-839.22"/>
</g>
<!-- otaf_geometry -->
<g id="node18" class="node">
<title>otaf_geometry</title><style>.edge>path:hover{stroke-width:8}</style>
<ellipse fill="#e61919" stroke="black" cx="753.57" cy="-628.67" rx="33.61" ry="18"/>
<text text-anchor="middle" x="753.57" y="-626.17" font-family="Helvetica,sans-Serif" font-size="10.00" fill="#ffffff">geometry</text>
</g>
<!-- otaf_geometry&#45;&gt;otaf__assembly_modeling__interface_constraints__interfaceLoopBuilder -->
<g id="edge41" class="edge">
<title>otaf_geometry&#45;&gt;otaf__assembly_modeling__interface_constraints__interfaceLoopBuilder</title><style>.edge>path:hover{stroke-width:8}</style>
<path fill="none" stroke="black" d="M753.57,-573.67C745.59,-545.1 776.51,-544.1 789.57,-517.46"/>
<path fill="none" stroke="black" d="M789.57,-515.46C830.47,-432.07 754.01,-392.58 678.57,-338.39 664.47,-328.26 575.52,-306.81 507.92,-291.53"/>
<polygon fill="#e61919" stroke="black" points="508.64,-288.11 498.12,-289.33 507.1,-294.94 508.64,-288.11"/>
</g>
<!-- otaf_geometry&#45;&gt;otaf__assembly_modeling__interface_constraints__surfaceInteractionManager -->
<g id="edge42" class="edge">
<title>otaf_geometry&#45;&gt;otaf__assembly_modeling__interface_constraints__surfaceInteractionManager</title><style>.edge>path:hover{stroke-width:8}</style>
<path fill="none" stroke="black" d="M789.57,-515.46C810.66,-472.45 854.86,-485.72 865.57,-439.03"/>
<path fill="none" stroke="black" d="M865.57,-437.03C875.66,-393.06 871.7,-371.97 841.57,-338.39 820.21,-314.58 789.3,-299.62 759.27,-290.23"/>
<polygon fill="#e61919" stroke="black" points="760.14,-286.84 749.56,-287.37 758.16,-293.55 760.14,-286.84"/>
</g>
<!-- otaf_geometry&#45;&gt;otaf__assembly_modeling_assemblyDataProcessor -->
<g id="edge43" class="edge">
<title>otaf_geometry&#45;&gt;otaf__assembly_modeling_assemblyDataProcessor</title><style>.edge>path:hover{stroke-width:8}</style>
<path fill="none" stroke="black" d="M755.87,-610.65C756.74,-600.09 756.84,-586.37 753.57,-574.67"/>
<path fill="none" stroke="black" d="M753.57,-573.67C739.22,-522.31 679.37,-560.27 647.57,-517.46"/>
</g>
<!-- otaf_geometry&#45;&gt;otaf__assembly_modeling_assemblyModelingBaseObjects -->
<g id="edge44" class="edge">
<title>otaf_geometry&#45;&gt;otaf__assembly_modeling_assemblyModelingBaseObjects</title><style>.edge>path:hover{stroke-width:8}</style>
<path fill="none" stroke="black" d="M721.23,-623.19C675.62,-616.24 590.3,-600.83 521.57,-574.67"/>
<path fill="none" stroke="black" d="M521.57,-573.67C479.3,-557.58 430.64,-544.37 390.5,-534.8"/>
<polygon fill="#e61919" stroke="black" points="391.29,-531.39 380.76,-532.5 389.69,-538.2 391.29,-531.39"/>
</g>
<!-- otaf_geometry&#45;&gt;otaf__assembly_modeling_compatibilityLoopHandling -->
<g id="edge45" class="edge">
<title>otaf_geometry&#45;&gt;otaf__assembly_modeling_compatibilityLoopHandling</title><style>.edge>path:hover{stroke-width:8}</style>
<path fill="none" stroke="black" d="M521.57,-573.67C487.5,-560.71 515.74,-526.85 497.57,-495.24 480.61,-465.74 457.69,-470.83 445.57,-439.03"/>
</g>
<!-- otaf_geometry__geometry&#45;&gt;otaf_geometry -->
<g id="edge46" class="edge">
<title>otaf_geometry__geometry&#45;&gt;otaf_geometry</title><style>.edge>path:hover{stroke-width:8}</style>
<path fill="none" stroke="black" d="M753.57,-682.49C753.57,-674.64 753.57,-665.53 753.57,-657.12"/>
<polygon fill="#b34c4c" stroke="black" points="757.07,-656.98 753.57,-646.98 750.07,-656.98 757.07,-656.98"/>
</g>
</g>
</svg>
